<svg id="Layer_1" data-name="Layer 1" xmlns="http://www.w3.org/2000/svg" viewBox="0 0 13.166 10"><defs><style>.cls-1{fill:#fffeff;}</style></defs><title>demo_v3</title><path class="cls-1" d="M11.6,0H1.563A1.534,1.534,0,0,0,0,1.5v7A1.534,1.534,0,0,0,1.563,10H11.6a1.534,1.534,0,0,0,1.563-1.5v-7A1.534,1.534,0,0,0,11.6,0Zm0,8.675H1.563c-.127,0-.238-.082-.238-.176V2.426L5.866,6.26a.517.517,0,0,0,.334.122h.766A.517.517,0,0,0,7.3,6.26l4.541-3.834V8.5C11.841,8.593,11.73,8.675,11.6,8.675ZM6.583,5.066,2.166,1.325H11Z"/></svg>