<svg id="Layer_1" data-name="Layer 1" xmlns="http://www.w3.org/2000/svg" viewBox="0 0 18 18"><defs><style>.cls-1{fill:#fff;}</style></defs><title>demo_v3</title><circle class="cls-1" cx="9" cy="9" r="9"/><path d="M12,12.1v1.7H6a4.629,4.629,0,0,1,.584-1.829A11.969,11.969,0,0,1,8.509,9.678a12.7,12.7,0,0,0,1.42-1.565,2.119,2.119,0,0,0,.353-1.122,1.331,1.331,0,0,0-.308-.943,1.1,1.1,0,0,0-.849-.328,1.1,1.1,0,0,0-.853.345,1.856,1.856,0,0,0-.366,1.147L6.2,7.03a3.074,3.074,0,0,1,.956-2.171A3.071,3.071,0,0,1,9.168,4.2a2.8,2.8,0,0,1,2.077.763A2.594,2.594,0,0,1,12,6.861a3.518,3.518,0,0,1-.216,1.23A5.07,5.07,0,0,1,11.1,9.313a11.447,11.447,0,0,1-1.121,1.219c-.539.531-.882.884-1.025,1.057A3.067,3.067,0,0,0,8.6,12.1Z"/></svg>